<?xml version="1.0" standalone="no"?><!DOCTYPE svg PUBLIC "-//W3C//DTD SVG 1.1//EN" "http://www.w3.org/Graphics/SVG/1.1/DTD/svg11.dtd"><svg t="1715487902588" class="icon" viewBox="0 0 1208 1024" version="1.1" xmlns="http://www.w3.org/2000/svg" p-id="8529" xmlns:xlink="http://www.w3.org/1999/xlink" width="235.9375" height="200"><path d="M659.105605 991.981121H142.574631A143.178761 143.178761 0 0 1 0 848.80236V143.178761A143.178761 143.178761 0 0 1 142.574631 0H1002.855457a143.782891 143.782891 0 0 1 143.178761 143.178761v366.102655h-60.412979V143.178761A82.161652 82.161652 0 0 0 1003.459587 60.412979H142.574631A82.161652 82.161652 0 0 0 60.412979 143.178761v705.623599a82.161652 82.161652 0 0 0 82.161652 82.161652h516.530974z" fill="#908FB2" p-id="8530"></path><path d="M196.342183 257.963422m33.831268 0l693.541003 0q33.831268 0 33.831269 33.831268l0-0.60413q0 33.831268-33.831269 33.831269l-693.541003 0q-33.831268 0-33.831268-33.831269l0 0.60413q0-33.831268 33.831268-33.831268Z" fill="#908FB2" p-id="8531"></path><path d="M196.342183 462.159292m33.831268 0l372.143953 0q33.831268 0 33.831269 33.831268l0-0.604129q0 33.831268-33.831269 33.831268l-372.143953 0q-33.831268 0-33.831268-33.831268l0 0.604129q0-33.831268 33.831268-33.831268Z" fill="#908FB2" p-id="8532"></path><path d="M196.342183 666.959292m33.831268 0l372.143953 0q33.831268 0 33.831269 33.831268l0-0.604129q0 33.831268-33.831269 33.831268l-372.143953 0q-33.831268 0-33.831268-33.831268l0 0.604129q0-33.831268 33.831268-33.831268Z" fill="#908FB2" p-id="8533"></path><path d="M837.323894 581.776991c-64.037758 0-105.722714 48.934513-105.722714 124.450738v3.020649a15.103245 15.103245 0 0 0 29.60236 0v-3.020649c0-60.412979 27.789971-93.035988 76.120354-93.035989a67.662537 67.662537 0 0 1 64.641888 37.456048 125.054867 125.054867 0 0 1 12.082596 55.579941v33.227138h30.206489v-33.227138c0-75.516224-41.684956-124.450737-106.326843-124.450738zM1069.309735 863.905605a35.039528 35.039528 0 0 0-34.435399-35.643658 35.643658 35.643658 0 0 0-34.435398 35.643658 34.435398 34.435398 0 0 0 16.915634 30.206489v40.476697a17.519764 17.519764 0 1 0 35.039528 0v-38.664307a34.435398 34.435398 0 0 0 16.915635-30.20649z m0 0l88.202949 160.094395H912.235988a51.351032 51.351032 0 0 1-50.746902-50.746903v-181.238938a51.351032 51.351032 0 0 1 50.746902-50.746902h245.276696a51.351032 51.351032 0 0 1 50.746903 50.746902v181.238938a51.351032 51.351032 0 0 1-50.746903 50.746903z" fill="#FC6002" p-id="8534"></path></svg>