<?xml version="1.0" standalone="no"?><!DOCTYPE svg PUBLIC "-//W3C//DTD SVG 1.1//EN" "http://www.w3.org/Graphics/SVG/1.1/DTD/svg11.dtd"><svg t="1714317747871" class="icon" viewBox="0 0 1024 1024" version="1.1" xmlns="http://www.w3.org/2000/svg" p-id="8727" xmlns:xlink="http://www.w3.org/1999/xlink" width="200" height="200"><path d="M782.628571 336.457143c-43.885714-146.285714-175.542857-256-336.457142-256-197.485714 0-351.085714 160.914286-351.085715 351.085714 0 153.6 102.4 285.257143 234.057143 329.142857 43.885714 87.771429 117.028571 153.6 212.114286 175.542857v-87.771428c-36.571429-14.628571-73.142857-36.571429-95.085714-65.828572-14.628571-14.628571-21.942857-29.257143-36.571429-43.885714l-21.942857-43.885714c-7.314286-21.942857-14.628571-43.885714-14.628572-73.142857 0-131.657143 109.714286-241.371429 241.371429-241.371429 29.257143 0 58.514286 7.314286 80.457143 14.628572l43.885714 21.942857c14.628571 7.314286 29.257143 21.942857 43.885714 36.571428 29.257143 29.257143 51.2 65.828571 58.514286 102.4h87.771429c-7.314286-95.085714-65.828571-175.542857-146.285715-219.428571zM621.714286 292.571429C438.857143 292.571429 292.571429 438.857143 292.571429 621.714286v29.257143c-73.142857-51.2-117.028571-131.657143-117.028572-219.428572 0-146.285714 117.028571-263.314286 263.314286-263.314286 102.4 0 182.857143 51.2 234.057143 124.342858h-51.2z" fill="#4A4E57" p-id="8728"></path><path d="M928.914286 863.085714c14.628571 14.628571 14.628571 43.885714 0 58.514286-7.314286 7.314286-21.942857 14.628571-29.257143 14.628571s-21.942857-7.314286-29.257143-14.628571l-102.4-102.4L658.285714 928.914286c-7.314286 7.314286-14.628571 14.628571-29.257143 14.628571-7.314286 0-21.942857-7.314286-29.257142-14.628571-14.628571-14.628571-14.628571-43.885714 0-58.514286l102.4-102.4L599.771429 658.285714c-14.628571-14.628571-14.628571-43.885714 0-58.514285 14.628571-14.628571 43.885714-14.628571 58.514285 0l109.714286 102.4 102.4-102.4c14.628571-14.628571 43.885714-14.628571 58.514286 0 14.628571 14.628571 14.628571 43.885714 0 58.514285l-102.4 102.4 102.4 102.4z" fill="#F08E00" p-id="8729"></path></svg>