<svg width="50" height="50" xmlns="http://www.w3.org/2000/svg" fill="none">
 <defs>
  <clipPath id="clip0_444_4251">
   <rect id="svg_1" x="50" y="17" fill="white" height="20" width="146"/>
  </clipPath>
 </defs>
 <g>
  <title>Layer 1</title>
  <path id="svg_2" fill="#312E81" d="m24.6178,47.452c11.1334,0 20.1588,-9.0254 20.1588,-20.1587c0,-11.1334 -9.0254,-20.15884 -20.1588,-20.15884c-11.1334,0 -20.15882,9.02544 -20.15882,20.15884c0,11.1333 9.02542,20.1587 20.15882,20.1587z"/>
  <path id="svg_3" fill="#FBBF24" d="m39.7024,29.6068c0.3226,-0.2802 0.584,-0.6238 0.7681,-1.0094c0.184,-0.3855 0.2868,-0.8049 0.3018,-1.2319c0.015,-0.427 -0.058,-0.8525 -0.2145,-1.2501c-0.1565,-0.3975 -0.3931,-0.7586 -0.6952,-1.0608c-0.3021,-0.3022 -0.6631,-0.5389 -1.0606,-0.6956c-0.3975,-0.1566 -0.823,-0.2298 -1.25,-0.2149c-0.427,0.0149 -0.8464,0.1175 -1.232,0.3014c-0.3857,0.1839 -0.7293,0.4452 -1.0096,0.7677c1.2128,-1.2128 2.1283,-4.0947 0.9154,-5.3075c-1.2144,-1.2128 -4.0962,-0.2974 -5.3091,0.9155c1.2129,-1.2129 2.1283,-4.0947 0.9155,-5.3091c-1.2128,-1.2144 -4.0947,-0.2974 -5.3075,0.9155c0.293,-0.2948 0.5241,-0.6452 0.6795,-1.0306c0.1555,-0.3855 0.2322,-0.7981 0.2257,-1.2137c-0.0065,-0.4156 -0.0962,-0.8256 -0.2637,-1.206c-0.1675,-0.3803 -0.4094,-0.7233 -0.7115,-1.0087c-1.2378,-1.1661 -3.2135,-1.0447 -4.4154,0.1557l-3.7942,3.7973c-0.0735,0.0721 -0.1427,0.1485 -0.2071,0.2288l-0.0109,-0.0109l-6.0922,6.0907c-0.6264,0.6263 -1.1233,1.3698 -1.4624,2.1882c-0.339,0.8184 -0.51349,1.6955 -0.51349,2.5813c0,0.8859 0.17449,1.763 0.51349,2.5814c0.3391,0.8184 0.836,1.5619 1.4624,2.1882l-0.8641,-0.8641l-5.5708,2.7994c1.34673,4.3437 0.56079,4.1074 4,7.5544c3.4392,3.447 4.1802,3.8927 8.5271,5.241l2.8056,-5.8392l-0.8641,-0.864c0.6261,0.6263 1.3696,1.1232 2.1878,1.4622c0.8183,0.339 1.6953,0.5135 2.581,0.5135c0.8857,0 1.7627,-0.1745 2.5809,-0.5135c0.8183,-0.339 1.5617,-0.8359 2.1879,-1.4622l6.0922,-6.0922l-0.0109,-0.0109c0.0803,-0.0644 0.1567,-0.1336 0.2289,-0.2071l3.886,-3.8798z"/>
  <path id="svg_4" fill="#D0830B" d="m29.8145,39.4884l2.4335,-2.6094l-14.2893,-14.6053l-0.4827,4.9167l5.7139,5.7138l-2.8025,-0.1292l-5.5114,-5.2779l0.4421,2.5175l3.3988,3.3988c0.6805,0.6803 1.5923,1.0795 2.5538,1.1181c0.9615,0.0387 1.9024,-0.286 2.6353,-0.9095l5.9085,5.8664z" opacity="0.6"/>
  <path id="svg_5" fill="#D0830B" d="m19.7681,39.8154l-0.7115,-0.4764l-3.2719,6.5881l1.7157,0.5729l3.2485,-5.7037l-0.9808,-0.9809z" opacity="0.6"/>
  <path id="svg_6" stroke-miterlimit="10" stroke-width="0.86253" stroke="#0F172A" d="m18.0274,16.1333l-6.0921,6.0922c-0.6264,0.6262 -1.1233,1.3696 -1.4623,2.1878c-0.339,0.8183 -0.51353,1.6953 -0.51353,2.581c0,0.8857 0.17453,1.7627 0.51353,2.5809c0.339,0.8183 0.8359,1.5617 1.4623,2.1879"/>
  <path id="svg_7" stroke-miterlimit="10" stroke-width="0.86253" stroke="#0F172A" d="m35.5986,33.7046l-6.0922,6.0922c-0.6262,0.6264 -1.3696,1.1232 -2.1879,1.4623c-0.8182,0.339 -1.6952,0.5135 -2.5809,0.5135c-0.8857,0 -1.7627,-0.1745 -2.581,-0.5135c-0.8182,-0.3391 -1.5617,-0.8359 -2.1878,-1.4623"/>
  <path id="svg_8" stroke-miterlimit="10" stroke-width="0.86253" stroke="#0F172A" d="m20.833,40.6593l-2.833,5.8407"/>
  <path id="svg_9" stroke-miterlimit="10" stroke-width="0.86253" stroke="#0F172A" d="m11.0709,30.899l-5.5709,3.101"/>
  <path id="svg_10" stroke-linecap="round" stroke-miterlimit="10" stroke-width="0.86253" stroke="#0F172A" d="m9.68359,34.1577l-3.18359,1.8423"/>
  <path id="svg_11" stroke-miterlimit="10" stroke-width="0.86253" stroke="#0F172A" d="m12.0977,22.0806l0.9652,-0.9652"/>
  <path id="svg_12" fill="#0F172A" d="m13.1722,33.6095l-1.5413,-1.5413l0.6103,-0.6103l2.5004,2.5004c0.0186,0.0179 0.0305,0.0418 0.0336,0.0675c0.003,0.0258 -0.0029,0.0518 -0.0169,0.0736c-0.0139,0.0218 -0.035,0.0382 -0.0596,0.0462c-0.0247,0.0081 -0.0513,0.0073 -0.0755,-0.002l-1.451,-0.5341z"/>
  <path id="svg_13" fill="#FBBF24" d="m19.19,32.0293l-4.3111,-4.3127l4.3111,4.3127z"/>
  <path id="svg_14" fill="#0F172A" d="m19.6635,40.1018l-1.0323,-1.0322c-0.0184,-0.0174 -0.0303,-0.0406 -0.0339,-0.0656c-0.0036,-0.0251 0.0015,-0.0507 0.0143,-0.0725c0.0128,-0.0219 0.0327,-0.0388 0.0563,-0.0479c0.0236,-0.0091 0.0497,-0.01 0.0739,-0.0024l1.2922,0.3706l0.2398,0.2397l-0.6103,0.6103z"/>
  <path id="svg_15" stroke-miterlimit="10" stroke-width="1.51676" stroke="#1B1966" d="m24.6178,47.452c11.1334,0 20.1588,-9.0254 20.1588,-20.1587c0,-11.1334 -9.0254,-20.15884 -20.1588,-20.15884c-11.1334,0 -20.15882,9.02544 -20.15882,20.15884c0,11.1333 9.02542,20.1587 20.15882,20.1587z"/>
  <path id="svg_16" stroke-linejoin="round" stroke-linecap="round" stroke-width="0.83319" stroke="#0F172A" fill="#FDE047" d="m14.9494,12.9072l-11.9494,-11.9072l7.4104,21.3794l0.3335,-6.2779l26.1017,26.1017l0.3665,-5.0426l12.0245,11.9823l-7.6292,-21.8553l-0.5537,6.2898l-25.8406,-25.61132l-0.2637,4.94112z"/>
  <path id="svg_17" stroke-miterlimit="10" stroke-width="0.86253" stroke="#0F172A" fill="#FBBF24" d="m26.5171,16.4258c1.213,-1.213 1.213,-3.1796 0,-4.3926c-1.213,-1.213 -3.1796,-1.213 -4.3926,0l-3.8807,3.8807c-1.2129,1.2129 -1.2129,3.1796 0,4.3925c1.213,1.213 3.1796,1.213 4.3926,0l3.8807,-3.8806z"/>
  <path id="svg_18" stroke-miterlimit="10" stroke-width="0.86253" stroke="#0F172A" fill="#FBBF24" d="m31.9639,19.7669c1.213,-1.213 1.213,-3.1796 0,-4.3926c-1.213,-1.213 -3.1796,-1.213 -4.3926,0l-4.9332,4.9331c-1.2129,1.213 -1.2129,3.1796 0,4.3926c1.213,1.213 3.1797,1.213 4.3926,0l4.9332,-4.9331z"/>
  <path id="svg_19" stroke-miterlimit="10" stroke-width="0.86253" stroke="#0F172A" fill="#FBBF24" d="m36.3579,24.1607c1.213,-1.213 1.213,-3.1796 0,-4.3926c-1.213,-1.2129 -3.1796,-1.2129 -4.3926,0l-4.9331,4.9332c-1.213,1.2129 -1.213,3.1796 0,4.3926c1.213,1.2129 3.1796,1.2129 4.3926,0l4.9331,-4.9332z"/>
  <path id="svg_20" stroke-miterlimit="10" stroke-width="0.86253" stroke="#0F172A" fill="#FBBF24" d="m39.6973,29.6056c1.213,-1.213 1.213,-3.1796 0,-4.3926c-1.213,-1.213 -3.1796,-1.213 -4.3926,0l-3.8807,3.8807c-1.213,1.213 -1.213,3.1796 0,4.3926c1.213,1.213 3.1796,1.213 4.3926,0l3.8807,-3.8807z"/>
  <path id="svg_21" fill="#FBBF24" d="m12.8564,21.3022c0.5836,-0.5809 1.3735,-0.9071 2.1968,-0.9071c0.8234,0 1.6133,0.3262 2.1968,0.9071l6.3335,6.3335c0.5809,0.5835 0.9071,1.3734 0.9071,2.1968c0,0.8234 -0.3262,1.6132 -0.9071,2.1968c-0.5835,0.5809 -1.3734,0.907 -2.1968,0.907c-0.8233,0 -1.6132,-0.3261 -2.1968,-0.907"/>
  <path id="svg_22" stroke-miterlimit="10" stroke-width="0.86253" stroke="#0F172A" d="m12.8564,21.3022c0.5836,-0.5809 1.3735,-0.9071 2.1968,-0.9071c0.8234,0 1.6133,0.3262 2.1968,0.9071l6.3335,6.3335c0.5809,0.5835 0.9071,1.3734 0.9071,2.1968c0,0.8234 -0.3262,1.6132 -0.9071,2.1968c-0.5835,0.5809 -1.3734,0.907 -2.1968,0.907c-0.8233,0 -1.6132,-0.3261 -2.1968,-0.907"/>
  <path id="svg_23" fill="#F59E0B" d="m22.313,16.5691l-0.3314,-0.3314c-0.4949,-0.4949 -1.2974,-0.4949 -1.7923,0l-1.0579,1.058c-0.495,0.4949 -0.495,1.2973 -0.0001,1.7922l0.3314,0.3314c0.4949,0.4949 1.2974,0.4949 1.7923,0l1.058,-1.0579c0.4949,-0.495 0.4949,-1.2974 0,-1.7923z"/>
  <path id="svg_24" fill="#F59E0B" d="m21.5713,27.892c-0.5868,-0.5867 -1.5378,-0.587 -2.1242,-0.0005c-0.5865,0.5864 -0.5862,1.5374 0.0005,2.1241l0.7255,0.7255c0.5867,0.5868 1.5378,0.587 2.1242,0.0006c0.5864,-0.5864 0.5862,-1.5375 -0.0005,-2.1242l-0.7255,-0.7255z"/>
  <path id="svg_25" fill="#F59E0B" d="m26.7094,20.9614l-0.3313,-0.3314c-0.495,-0.4949 -1.2974,-0.4949 -1.7923,0.0001l-1.058,1.0579c-0.4949,0.4949 -0.4949,1.2974 0,1.7923l0.3314,0.3314c0.4949,0.4949 1.2973,0.4949 1.7923,-0.0001l1.0579,-1.0579c0.495,-0.4949 0.495,-1.2974 0,-1.7923z"/>
  <path id="svg_26" fill="#F59E0B" d="m31.1015,25.3549l-0.3313,-0.3314c-0.495,-0.4949 -1.2974,-0.4949 -1.7923,0l-1.058,1.058c-0.4949,0.4949 -0.4949,1.2974 0,1.7923l0.3314,0.3313c0.4949,0.495 1.2973,0.495 1.7923,0l1.0579,-1.0579c0.4949,-0.4949 0.4949,-1.2974 0,-1.7923z"/>
  <path id="svg_27" fill="#F59E0B" d="m35.4946,29.7462l-0.3314,-0.3313c-0.4949,-0.495 -1.2973,-0.495 -1.7922,0l-1.058,1.0579c-0.4949,0.495 -0.4949,1.2974 0,1.7923l0.3314,0.3314c0.4949,0.4949 1.2973,0.4949 1.7922,0l1.058,-1.058c0.4949,-0.4949 0.4949,-1.2973 0,-1.7923z"/>
  <path id="svg_28" fill="#0F172A" d="m18.8863,32.3346l-4.3111,-4.3127l-0.207,-1.1365c-0.0039,-0.0236 -0.0002,-0.0478 0.0106,-0.0692c0.0107,-0.0214 0.0279,-0.0388 0.0491,-0.0499c0.0212,-0.011 0.0454,-0.0151 0.069,-0.0116c0.0237,0.0035 0.0456,0.0143 0.0628,0.031l4.9369,4.9385l-0.6103,0.6104z"/>
 </g>
</svg>